<mxfile host="app.diagrams.net" agent="Mozilla/5.0 (Windows NT 10.0; Win64; x64) AppleWebKit/537.36 (KHTML, like Gecko) Chrome/138.0.0.0 Safari/537.36" version="28.0.7">
  <diagram name="Page-1" id="0eBvihoBGxTYQp3c_srY">
    <mxGraphModel dx="918" dy="489" grid="1" gridSize="10" guides="1" tooltips="1" connect="1" arrows="1" fold="1" page="1" pageScale="1" pageWidth="850" pageHeight="1100" math="0" shadow="0">
      <root>
        <mxCell id="0" />
        <mxCell id="1" parent="0" />
        <mxCell id="sGYKxq-fNNx3x9AkK9FH-22" value="" style="edgeStyle=orthogonalEdgeStyle;rounded=0;orthogonalLoop=1;jettySize=auto;html=1;" edge="1" parent="1" source="sGYKxq-fNNx3x9AkK9FH-1" target="sGYKxq-fNNx3x9AkK9FH-4">
          <mxGeometry relative="1" as="geometry" />
        </mxCell>
        <mxCell id="sGYKxq-fNNx3x9AkK9FH-1" value="&lt;font style=&quot;font-size: 14px;&quot;&gt;&lt;b&gt;Start&lt;/b&gt;&lt;/font&gt;" style="rounded=0;whiteSpace=wrap;html=1;fillColor=#f8cecc;gradientColor=#ea6b66;strokeColor=#b85450;" vertex="1" parent="1">
          <mxGeometry x="280" y="20" width="260" height="60" as="geometry" />
        </mxCell>
        <mxCell id="sGYKxq-fNNx3x9AkK9FH-23" style="edgeStyle=orthogonalEdgeStyle;rounded=0;orthogonalLoop=1;jettySize=auto;html=1;exitX=0.5;exitY=1;exitDx=0;exitDy=0;entryX=0.5;entryY=0;entryDx=0;entryDy=0;" edge="1" parent="1" source="sGYKxq-fNNx3x9AkK9FH-4" target="sGYKxq-fNNx3x9AkK9FH-6">
          <mxGeometry relative="1" as="geometry" />
        </mxCell>
        <mxCell id="sGYKxq-fNNx3x9AkK9FH-4" value="&lt;b&gt;&lt;font style=&quot;font-size: 14px;&quot;&gt;Load Registration Page&lt;/font&gt;&lt;/b&gt;" style="rounded=0;whiteSpace=wrap;html=1;fillColor=#f8cecc;gradientColor=#ea6b66;strokeColor=#b85450;" vertex="1" parent="1">
          <mxGeometry x="280" y="120" width="260" height="60" as="geometry" />
        </mxCell>
        <mxCell id="sGYKxq-fNNx3x9AkK9FH-24" style="edgeStyle=orthogonalEdgeStyle;rounded=0;orthogonalLoop=1;jettySize=auto;html=1;exitX=0.5;exitY=1;exitDx=0;exitDy=0;" edge="1" parent="1" source="sGYKxq-fNNx3x9AkK9FH-6">
          <mxGeometry relative="1" as="geometry">
            <mxPoint x="410" y="330" as="targetPoint" />
          </mxGeometry>
        </mxCell>
        <mxCell id="sGYKxq-fNNx3x9AkK9FH-6" value="&lt;b&gt;&lt;font style=&quot;font-size: 14px;&quot;&gt;Display Registration Form&lt;/font&gt;&lt;/b&gt;" style="rounded=0;whiteSpace=wrap;html=1;fillColor=#f8cecc;gradientColor=#ea6b66;strokeColor=#b85450;" vertex="1" parent="1">
          <mxGeometry x="280" y="220" width="260" height="60" as="geometry" />
        </mxCell>
        <mxCell id="sGYKxq-fNNx3x9AkK9FH-26" style="edgeStyle=orthogonalEdgeStyle;rounded=0;orthogonalLoop=1;jettySize=auto;html=1;" edge="1" parent="1" source="sGYKxq-fNNx3x9AkK9FH-25">
          <mxGeometry relative="1" as="geometry">
            <mxPoint x="410" y="440" as="targetPoint" />
          </mxGeometry>
        </mxCell>
        <mxCell id="sGYKxq-fNNx3x9AkK9FH-25" value="&lt;b&gt;&lt;font style=&quot;font-size: 14px;&quot;&gt;Use Fills From Inputs&lt;/font&gt;&lt;/b&gt;" style="rounded=0;whiteSpace=wrap;html=1;fillColor=#f8cecc;gradientColor=#ea6b66;strokeColor=#b85450;" vertex="1" parent="1">
          <mxGeometry x="280" y="330" width="260" height="60" as="geometry" />
        </mxCell>
        <mxCell id="sGYKxq-fNNx3x9AkK9FH-28" style="edgeStyle=orthogonalEdgeStyle;rounded=0;orthogonalLoop=1;jettySize=auto;html=1;" edge="1" parent="1" source="sGYKxq-fNNx3x9AkK9FH-27">
          <mxGeometry relative="1" as="geometry">
            <mxPoint x="410" y="540" as="targetPoint" />
          </mxGeometry>
        </mxCell>
        <mxCell id="sGYKxq-fNNx3x9AkK9FH-27" value="&lt;b&gt;&lt;font style=&quot;font-size: 14px;&quot;&gt;Click on Register Button&lt;/font&gt;&lt;/b&gt;" style="rounded=0;whiteSpace=wrap;html=1;fillColor=#f8cecc;gradientColor=#ea6b66;strokeColor=#b85450;" vertex="1" parent="1">
          <mxGeometry x="280" y="440" width="260" height="60" as="geometry" />
        </mxCell>
        <mxCell id="sGYKxq-fNNx3x9AkK9FH-30" value="" style="endArrow=none;html=1;rounded=0;" edge="1" parent="1">
          <mxGeometry width="50" height="50" relative="1" as="geometry">
            <mxPoint x="310" y="540" as="sourcePoint" />
            <mxPoint x="510" y="540" as="targetPoint" />
            <Array as="points">
              <mxPoint x="420" y="540" />
            </Array>
          </mxGeometry>
        </mxCell>
        <mxCell id="sGYKxq-fNNx3x9AkK9FH-37" value="" style="endArrow=classic;html=1;rounded=0;" edge="1" parent="1">
          <mxGeometry width="50" height="50" relative="1" as="geometry">
            <mxPoint x="310" y="540" as="sourcePoint" />
            <mxPoint x="310" y="600" as="targetPoint" />
          </mxGeometry>
        </mxCell>
        <mxCell id="sGYKxq-fNNx3x9AkK9FH-39" value="Yes" style="edgeLabel;html=1;align=center;verticalAlign=middle;resizable=0;points=[];" vertex="1" connectable="0" parent="sGYKxq-fNNx3x9AkK9FH-37">
          <mxGeometry x="-0.1333" y="1" relative="1" as="geometry">
            <mxPoint as="offset" />
          </mxGeometry>
        </mxCell>
        <mxCell id="sGYKxq-fNNx3x9AkK9FH-38" value="" style="endArrow=classic;html=1;rounded=0;" edge="1" parent="1">
          <mxGeometry width="50" height="50" relative="1" as="geometry">
            <mxPoint x="510" y="540" as="sourcePoint" />
            <mxPoint x="510" y="600" as="targetPoint" />
          </mxGeometry>
        </mxCell>
        <mxCell id="sGYKxq-fNNx3x9AkK9FH-40" value="No" style="edgeLabel;html=1;align=center;verticalAlign=middle;resizable=0;points=[];" vertex="1" connectable="0" parent="sGYKxq-fNNx3x9AkK9FH-38">
          <mxGeometry x="-0.2" y="2" relative="1" as="geometry">
            <mxPoint as="offset" />
          </mxGeometry>
        </mxCell>
        <mxCell id="sGYKxq-fNNx3x9AkK9FH-46" value="" style="edgeStyle=orthogonalEdgeStyle;rounded=0;orthogonalLoop=1;jettySize=auto;html=1;" edge="1" parent="1" source="sGYKxq-fNNx3x9AkK9FH-41" target="sGYKxq-fNNx3x9AkK9FH-43">
          <mxGeometry relative="1" as="geometry" />
        </mxCell>
        <mxCell id="sGYKxq-fNNx3x9AkK9FH-41" value="&lt;b&gt;&lt;font style=&quot;font-size: 14px;&quot;&gt;Submit Form(or JS alert/handle data)&lt;/font&gt;&lt;/b&gt;" style="rounded=0;whiteSpace=wrap;html=1;fillColor=#f8cecc;gradientColor=#ea6b66;strokeColor=#b85450;" vertex="1" parent="1">
          <mxGeometry x="240" y="600" width="120" height="60" as="geometry" />
        </mxCell>
        <mxCell id="sGYKxq-fNNx3x9AkK9FH-42" value="&lt;b&gt;&lt;font style=&quot;font-size: 12px;&quot;&gt;Show Error:Highlight&lt;/font&gt;&lt;/b&gt;&lt;div&gt;&lt;b&gt;&lt;font style=&quot;font-size: 12px;&quot;&gt;Empty/Invalid Fields&lt;/font&gt;&lt;/b&gt;&lt;/div&gt;" style="rounded=0;whiteSpace=wrap;html=1;fillColor=#f8cecc;gradientColor=#ea6b66;strokeColor=#b85450;" vertex="1" parent="1">
          <mxGeometry x="470" y="600" width="120" height="60" as="geometry" />
        </mxCell>
        <mxCell id="sGYKxq-fNNx3x9AkK9FH-43" value="&lt;b&gt;&lt;font style=&quot;font-size: 14px;&quot;&gt;End&lt;/font&gt;&lt;/b&gt;" style="rounded=0;whiteSpace=wrap;html=1;fillColor=#f8cecc;gradientColor=#ea6b66;strokeColor=#b85450;" vertex="1" parent="1">
          <mxGeometry x="240" y="720" width="120" height="60" as="geometry" />
        </mxCell>
        <mxCell id="sGYKxq-fNNx3x9AkK9FH-47" value="" style="endArrow=none;html=1;rounded=0;entryX=0.442;entryY=1.033;entryDx=0;entryDy=0;entryPerimeter=0;" edge="1" parent="1" target="sGYKxq-fNNx3x9AkK9FH-42">
          <mxGeometry width="50" height="50" relative="1" as="geometry">
            <mxPoint x="523" y="750" as="sourcePoint" />
            <mxPoint x="460" y="670" as="targetPoint" />
          </mxGeometry>
        </mxCell>
        <mxCell id="sGYKxq-fNNx3x9AkK9FH-48" value="" style="endArrow=classic;html=1;rounded=0;entryX=1;entryY=0.5;entryDx=0;entryDy=0;" edge="1" parent="1" target="sGYKxq-fNNx3x9AkK9FH-43">
          <mxGeometry width="50" height="50" relative="1" as="geometry">
            <mxPoint x="520" y="750" as="sourcePoint" />
            <mxPoint x="460" y="670" as="targetPoint" />
          </mxGeometry>
        </mxCell>
      </root>
    </mxGraphModel>
  </diagram>
</mxfile>
